<svg id="Layer_1" data-name="Layer 1" width="200" xmlns="http://www.w3.org/2000/svg"
  xmlns:xlink="http://www.w3.org/1999/xlink" viewBox="0 0 1000 821.78">
  <defs>
    <clipPath id="clip-path">
      <rect x="363.9" y="319.93" width="176.04" height="35.38" rx="3.03" style="fill:none" />
    </clipPath>
  </defs>
  <path
    d="M500,595.68c70.58,0,137.1.62,195.47,1.63a307.89,307.89,0,0,0,113-238.68C808.51,188.25,670.39,50.12,500,50.12S191.49,188.25,191.49,358.63A307.9,307.9,0,0,0,304.33,597.16C362.75,596.19,429.34,595.65,500,595.68Z"
    style="fill:#bcfa7b" />
  <g style="opacity:0.2">
    <path
      d="M705.28,305.93h-1.44V236.78a15.53,15.53,0,0,0-15.51-15.51h-23c-.13,0-.24,0-.36,0H350.34a15.12,15.12,0,0,0-14.59,11.26,18.21,18.21,0,0,0-1.41,7v66.35H246.82a25,25,0,0,0-24.92,24.93V492.34a309.43,309.43,0,0,0,73.46,97.12H704.64A307.79,307.79,0,0,0,807.19,387.18V330.11q-1.11-12-3.11-23.77a5.19,5.19,0,0,0-2-.41Zm-56.37,0H388.51V270.15h260.4Z"
      style="fill:#6d4c41" />
  </g>
  <g style="opacity:0.30000000000000004">
    <path
      d="M80.61,609c0-7.44,187.77-13.4,419.4-13.31s419.38,6.2,419.38,13.65c0,4.3-62.75,8.1-160.44,10.53-21.08,4.82-102.81,8.38-200.42,8.34-81.75,0-152.35-2.58-185.52-6.25C203.47,620.16,80.61,615,80.61,609Z"
      style="fill:#6d4c41" />
  </g>
  <path
    d="M177.87,573.64H822.13a27.06,27.06,0,0,1,27.06,27.06v0a0,0,0,0,1,0,0H150.82a0,0,0,0,1,0,0v0A27.06,27.06,0,0,1,177.87,573.64Z"
    style="fill:#f0b27a" />
  <path
    d="M849.18,604.85H150.82a4.15,4.15,0,0,1-4.15-4.15,31.24,31.24,0,0,1,31.2-31.21H822.13a31.24,31.24,0,0,1,31.2,31.21A4.15,4.15,0,0,1,849.18,604.85Zm-693.84-8.31H844.66a23,23,0,0,0-22.53-18.75H177.87A23,23,0,0,0,155.34,596.54Z"
    style="fill:#6d4c41" />
  <g style="opacity:0.5">
    <path
      d="M186.18,582.53H830.43a22.69,22.69,0,0,1,6.93,1.1,22.78,22.78,0,0,0-15.23-5.84H177.87a23,23,0,0,0-22.53,18.76h9.75A22.93,22.93,0,0,1,186.18,582.53Z"
      style="fill:#fff" />
  </g>
  <path
    d="M651.06,214.57h33.39a0,0,0,0,1,0,0v91.77a0,0,0,0,1,0,0h0a33.39,33.39,0,0,1-33.39-33.39V214.57A0,0,0,0,1,651.06,214.57Z"
    transform="translate(1335.51 520.9) rotate(-180)" style="fill:#4dd0e1" />
  <path
    d="M684.45,311.49H651.06a5.16,5.16,0,0,1-5.16-5.16V214.57a5.16,5.16,0,0,1,5.16-5.16h23a15.53,15.53,0,0,1,15.51,15.51v81.41A5.16,5.16,0,0,1,684.45,311.49Zm-28.23-10.32h23.07V224.92a5.2,5.2,0,0,0-5.19-5.2H656.22Z"
    style="fill:#6d4c41" />
  <g style="opacity:0.30000000000000004">
    <path
      d="M651.06,214.57h33.39a0,0,0,0,1,0,0v91.77a0,0,0,0,1,0,0h0a33.39,33.39,0,0,1-33.39-33.39V214.57A0,0,0,0,1,651.06,214.57Z"
      transform="translate(1335.51 520.9) rotate(-180)" style="fill:#6d4c41" />
  </g>
  <path
    d="M639.8,216.56h25.62a0,0,0,0,1,0,0v90.5a0,0,0,0,1,0,0h0a25.62,25.62,0,0,1-25.62-25.62V216.56A0,0,0,0,1,639.8,216.56Z"
    transform="translate(1305.22 523.63) rotate(-180)" style="fill:#4dd0e1" />
  <path
    d="M665.42,312.19H639.8a5.13,5.13,0,0,1-5.12-5.13v-90.5a5.12,5.12,0,0,1,5.12-5.12h13.31a17.45,17.45,0,0,1,17.44,17.43v78.19A5.13,5.13,0,0,1,665.42,312.19Zm-20.5-10.25H660.3V228.87a7.2,7.2,0,0,0-7.19-7.19h-8.19Z"
    style="fill:#6d4c41" />
  <g style="opacity:0.5">
    <rect x="644.92" y="221.68" width="5.85" height="80.26" style="fill:#fff" />
  </g>
  <rect x="343.53" y="216.76" width="25.62" height="92.43" transform="translate(712.68 525.95) rotate(-180)"
    style="fill:#4dd0e1" />
  <path
    d="M369.15,314.32H343.53a5.13,5.13,0,0,1-5.12-5.13V216.76a5.12,5.12,0,0,1,5.12-5.12h25.62a5.12,5.12,0,0,1,5.12,5.12v92.43A5.13,5.13,0,0,1,369.15,314.32Zm-20.5-10.25H364V221.88H348.65Z"
    style="fill:#6d4c41" />
  <g style="opacity:0.30000000000000004">
    <rect x="343.53" y="216.76" width="25.62" height="92.43" transform="translate(712.68 525.95) rotate(-180)"
      style="fill:#6d4c41" />
  </g>
  <path
    d="M325.23,214.57h25.62a0,0,0,0,1,0,0v66.81A25.62,25.62,0,0,1,325.23,307h0a0,0,0,0,1,0,0V214.57A0,0,0,0,1,325.23,214.57Z"
    transform="translate(676.09 521.56) rotate(-180)" style="fill:#4dd0e1" />
  <path
    d="M350.85,312.12H325.23a5.12,5.12,0,0,1-5.12-5.12V227.72a18.3,18.3,0,0,1,18.27-18.28h12.47a5.13,5.13,0,0,1,5.13,5.13V307A5.13,5.13,0,0,1,350.85,312.12Zm-20.49-10.24h15.37V219.69h-7.35a8,8,0,0,0-8,8Z"
    style="fill:#6d4c41" />
  <g style="opacity:0.5">
    <path d="M337.67,229.18a8,8,0,0,1,8-8h0v-1.46h-7.35a8,8,0,0,0-8,8v74.16h7.31Z" style="fill:#fff" />
  </g>
  <rect x="679.66" y="299.19" width="108.18" height="273.29" transform="translate(1467.49 871.67) rotate(-180)"
    style="fill:#4fc3f7" />
  <path
    d="M787.83,577.6H679.66a5.13,5.13,0,0,1-5.13-5.12V299.19a5.13,5.13,0,0,1,5.13-5.12H787.83a5.13,5.13,0,0,1,5.13,5.12V572.48A5.13,5.13,0,0,1,787.83,577.6ZM684.78,567.36h97.93v-263H684.78Z"
    style="fill:#6d4c41" />
  <g style="opacity:0.30000000000000004">
    <rect x="679.66" y="299.19" width="108.18" height="273.29" transform="translate(1467.49 871.67) rotate(-180)"
      style="fill:#6d4c41" />
  </g>
  <path
    d="M212.79,299.19H691a0,0,0,0,1,0,0V501.62a70.86,70.86,0,0,1-70.86,70.86H212.79a0,0,0,0,1,0,0V299.19a0,0,0,0,1,0,0Z"
    transform="translate(903.83 871.67) rotate(-180)" style="fill:#4fc3f7" />
  <path
    d="M691,577.6H212.79a5.13,5.13,0,0,1-5.13-5.12V319a25,25,0,0,1,24.93-24.92H691a5.13,5.13,0,0,1,5.13,5.12V572.48A5.13,5.13,0,0,1,691,577.6ZM217.91,567.36h468v-263H232.59A14.7,14.7,0,0,0,217.91,319Z"
    style="fill:#6d4c41" />
  <g style="opacity:0.5">
    <polygon points="506 567.36 516.62 567.36 516.62 379.45 506 377.99 506 567.36" style="fill:#fff" />
  </g>
  <g style="opacity:0.2">
    <path d="M689.54,380.18h-8.78S677.83,552.9,508.05,557.29l-.52,14.64H692.26Z" style="fill:#6d4c41" />
  </g>
  <g style="opacity:0.5">
    <path d="M408.88,381.63v33.21a9,9,0,0,0,8.66,9L502.7,427v5.13h-105v-52Z" style="fill:#fff" />
  </g>
  <g style="opacity:0.2">
    <path d="M395.13,380.18h-8.78S383.42,552.9,213.63,557.29l-.52,14.64H397.84Z" style="fill:#6d4c41" />
  </g>
  <g style="opacity:0.5">
    <path d="M225.23,324.85a14.69,14.69,0,0,1,14.68-14.68h446v-5.86H232.59A14.7,14.7,0,0,0,217.91,319V567.36h7.32Z"
      style="fill:#fff" />
  </g>
  <path d="M397.84,571V503.65H506.27v68.83S397.84,569.51,397.84,571Z" style="fill:#eee" />
  <path
    d="M506.27,576h-.09c-39.93-1.09-100.63-2.43-107.11-1.72a3.58,3.58,0,0,1-1.23.22,3.5,3.5,0,0,1-3.5-3.5V503.64a3.5,3.5,0,0,1,3.5-3.5H506.27a3.51,3.51,0,0,1,3.51,3.5v68.84a3.5,3.5,0,0,1-3.51,3.5Zm-104.92-5a3.46,3.46,0,0,1-.59,1.93A3.37,3.37,0,0,0,401.35,571Zm8.69-3.93c8.24,0,21.39.2,42.64.64,20.89.43,41.88,1,50.09,1.19V507.15H401.35v60C403.37,567.09,406.16,567.05,410,567.05Z"
    style="fill:#6d4c41" />
  <g style="opacity:0.5">
    <path
      d="M484.93,402.65h-7.31v-2.93a3.66,3.66,0,0,0-7.32,0v2.93H422.73a3.66,3.66,0,1,0,0,7.32H470.3v4.39a3.66,3.66,0,0,0,7.32,0V410h7.31a3.66,3.66,0,0,0,0-7.32Z"
      style="fill:#fff" />
  </g>
  <path d="M472.49,415.09a3.66,3.66,0,0,1-3.66-3.66V396.8a3.66,3.66,0,1,1,7.32,0v14.63A3.66,3.66,0,0,1,472.49,415.09Z"
    style="fill:#6d4c41" />
  <path d="M483.47,407H421.26a3.66,3.66,0,1,1,0-7.32h62.21a3.66,3.66,0,0,1,0,7.32Z" style="fill:#6d4c41" />
  <circle cx="590.57" cy="338.36" r="16.37" style="fill:#eee" />
  <path
    d="M590.57,358.39a20,20,0,1,1,20-20A20,20,0,0,1,590.57,358.39Zm0-32.74a12.71,12.71,0,1,0,12.71,12.71A12.74,12.74,0,0,0,590.57,325.65Z"
    style="fill:#6d4c41" />
  <g style="opacity:0.2">
    <circle cx="590.57" cy="338.36" r="16.37" style="fill:#6d4c41" />
  </g>
  <circle cx="578.86" cy="338.36" r="16.37" style="fill:#eee" />
  <path
    d="M578.86,358.39a20,20,0,1,1,20-20A20,20,0,0,1,578.86,358.39Zm0-32.74a12.71,12.71,0,1,0,12.71,12.71A12.74,12.74,0,0,0,578.86,325.65Z"
    style="fill:#6d4c41" />
  <g style="opacity:0.2">
    <path d="M587.49,324.47A16.34,16.34,0,0,1,562.92,342a16.36,16.36,0,1,0,24.57-17.54Z" style="fill:#6d4c41" />
  </g>
  <circle cx="647.66" cy="338.36" r="16.37" style="fill:#eee" />
  <path
    d="M647.66,358.39a20,20,0,1,1,20-20A20,20,0,0,1,647.66,358.39Zm0-32.74a12.71,12.71,0,1,0,12.71,12.71A12.73,12.73,0,0,0,647.66,325.65Z"
    style="fill:#6d4c41" />
  <g style="opacity:0.2">
    <circle cx="647.66" cy="338.36" r="16.37" style="fill:#6d4c41" />
  </g>
  <circle cx="635.95" cy="338.36" r="16.37" style="fill:#eee" />
  <path
    d="M636,358.39a20,20,0,1,1,20-20A20,20,0,0,1,636,358.39Zm0-32.74a12.71,12.71,0,1,0,12.71,12.71A12.73,12.73,0,0,0,636,325.65Z"
    style="fill:#6d4c41" />
  <g style="opacity:0.2">
    <path d="M644.58,324.47a16.87,16.87,0,0,1,.42,3.65A16.34,16.34,0,0,1,620,342a16.36,16.36,0,1,0,24.58-17.54Z"
      style="fill:#6d4c41" />
  </g>
  <circle cx="265.18" cy="338.36" r="19.88" style="fill:#eee" />
  <path
    d="M265.18,361.9a23.54,23.54,0,1,1,23.54-23.54A23.56,23.56,0,0,1,265.18,361.9Zm0-39.75a16.22,16.22,0,1,0,16.22,16.21A16.23,16.23,0,0,0,265.18,322.15Z"
    style="fill:#6d4c41" />
  <g style="opacity:0.2">
    <circle cx="265.18" cy="338.36" r="19.88" style="fill:#6d4c41" />
  </g>
  <circle cx="253.97" cy="338.36" r="17.68" style="fill:#eee" />
  <path
    d="M254,359.7a21.34,21.34,0,1,1,21.34-21.34A21.37,21.37,0,0,1,254,359.7Zm0-35.36a14,14,0,1,0,14,14A14,14,0,0,0,254,324.34Z"
    style="fill:#6d4c41" />
  <g style="opacity:0.2">
    <path d="M263.74,323.63a18,18,0,0,1,.6,4.49,17.67,17.67,0,0,1-27.45,14.73,17.67,17.67,0,1,0,26.85-19.22Z"
      style="fill:#6d4c41" />
  </g>
  <circle cx="304.59" cy="476.4" r="71.17" style="fill:#d0d0d0" />
  <path
    d="M304.59,552a75.56,75.56,0,1,1,75.56-75.56A75.64,75.64,0,0,1,304.59,552Zm0-142.34a66.78,66.78,0,1,0,66.78,66.78A66.85,66.85,0,0,0,304.59,409.62Z"
    style="fill:#6d4c41" />
  <g style="opacity:0.5">
    <path d="M240.74,479.33A66.73,66.73,0,0,1,353.22,430.7,66.73,66.73,0,1,0,258.9,525,66.5,66.5,0,0,1,240.74,479.33Z"
      style="fill:#fff" />
  </g>
  <circle cx="304.59" cy="476.4" r="57.65" style="fill:#ff6c5c" />
  <path
    d="M304.59,537a60.58,60.58,0,1,1,60.58-60.58A60.65,60.65,0,0,1,304.59,537Zm0-115.3a54.72,54.72,0,1,0,54.73,54.72A54.79,54.79,0,0,0,304.59,421.68Z"
    style="fill:#6d4c41" />
  <g style="opacity:0.5">
    <path d="M341,435.6a54.68,54.68,0,0,1-77.22,77.21A54.69,54.69,0,1,0,341,435.6Z" style="fill:#fff" />
  </g>
  <g style="opacity:0.2">
    <path d="M258.65,486.65A54.7,54.7,0,0,1,350.2,446.2a54.7,54.7,0,1,0-82.43,70.64A54.42,54.42,0,0,1,258.65,486.65Z"
      style="fill:#6d4c41" />
  </g>
  <circle cx="304.59" cy="476.4" r="22.26" style="fill:#6d4c41" />
  <g style="opacity:0.5">
    <path d="M293.61,482.36a13.13,13.13,0,0,1,21.69-14.47,13.13,13.13,0,1,0-21.69,14.47Z" style="fill:#fff" />
  </g>
  <circle cx="597.85" cy="476.4" r="71.17" style="fill:#d0d0d0" />
  <path
    d="M597.85,552a75.56,75.56,0,1,1,75.56-75.56A75.64,75.64,0,0,1,597.85,552Zm0-142.34a66.78,66.78,0,1,0,66.78,66.78A66.86,66.86,0,0,0,597.85,409.62Z"
    style="fill:#6d4c41" />
  <g style="opacity:0.5">
    <path d="M534,479.33A66.73,66.73,0,0,1,646.48,430.7,66.74,66.74,0,1,0,552.15,525,66.54,66.54,0,0,1,534,479.33Z"
      style="fill:#fff" />
  </g>
  <circle cx="597.85" cy="476.4" r="57.65" style="fill:#ff6c5c" />
  <path
    d="M597.85,537a60.58,60.58,0,1,1,60.58-60.58A60.65,60.65,0,0,1,597.85,537Zm0-115.3a54.72,54.72,0,1,0,54.73,54.72A54.79,54.79,0,0,0,597.85,421.68Z"
    style="fill:#6d4c41" />
  <g style="opacity:0.5">
    <path d="M634.26,435.6a54.68,54.68,0,0,1-77.21,77.21,54.69,54.69,0,1,0,77.21-77.21Z" style="fill:#fff" />
  </g>
  <g style="opacity:0.2">
    <path d="M551.91,486.65a54.7,54.7,0,0,1,91.55-40.45A54.7,54.7,0,1,0,561,516.84,54.34,54.34,0,0,1,551.91,486.65Z"
      style="fill:#6d4c41" />
  </g>
  <circle cx="597.85" cy="476.4" r="22.26" style="fill:#6d4c41" />
  <g style="opacity:0.5">
    <path d="M586.87,482.36a13.13,13.13,0,0,1,21.69-14.47,13.13,13.13,0,1,0-21.69,14.47Z" style="fill:#fff" />
  </g>
  <circle cx="234.42" cy="398.94" r="5.64" style="fill:#6d4c41" />
  <circle cx="375.37" cy="398.94" r="5.64" style="fill:#6d4c41" />
  <circle cx="234.42" cy="548.34" r="5.64" style="fill:#6d4c41" />
  <circle cx="375.37" cy="548.34" r="5.64" style="fill:#6d4c41" />
  <circle cx="527.38" cy="398.94" r="5.64" style="fill:#6d4c41" />
  <circle cx="668.33" cy="398.94" r="5.64" style="fill:#6d4c41" />
  <circle cx="527.38" cy="548.34" r="5.64" style="fill:#6d4c41" />
  <circle cx="668.33" cy="548.34" r="5.64" style="fill:#6d4c41" />
  <rect x="360.24" y="316.27" width="183.35" height="42.7" rx="21.35" transform="translate(903.83 675.24) rotate(-180)"
    style="fill:#ffca28" />
  <path
    d="M536.91,362.63h-170a10.35,10.35,0,0,1-10.34-10.34V323a10.36,10.36,0,0,1,10.34-10.35h170A10.36,10.36,0,0,1,547.25,323v29.33A10.35,10.35,0,0,1,536.91,362.63Zm-170-42.7a3,3,0,0,0-3,3v29.33a3,3,0,0,0,3,3h170a3,3,0,0,0,3-3V323a3,3,0,0,0-3-3Z"
    style="fill:#6d4c41" />
  <g style="clip-path:url(#clip-path)">
    <rect x="413.42" y="271.14" width="35.13" height="117.1" transform="translate(260.73 -185.54) rotate(34.3)"
      style="fill:#fff;opacity:0.5" />
    <rect x="470.48" y="276.72" width="18.58" height="117.1" transform="translate(272.37 -212.06) rotate(34.3)"
      style="fill:#fff;opacity:0.5" />
  </g>
  <g style="opacity:0.2">
    <path d="M371.22,328.81a3,3,0,0,1,3-3H539.93V323a3,3,0,0,0-3-3h-170a3,3,0,0,0-3,3v29.33a3,3,0,0,0,3,3h4.3Z"
      style="fill:#6d4c41" />
  </g>
  <path d="M689.62,381.87h-474a4.39,4.39,0,1,1,0-8.78h474a4.39,4.39,0,0,1,0,8.78Z" style="fill:#6d4c41" />
  <line x1="506" y1="377.92" x2="506" y2="572.48" style="fill:#f5f5f5" />
  <path d="M506,576.87a4.4,4.4,0,0,1-4.39-4.39V377.92a4.39,4.39,0,1,1,8.78,0V572.48A4.39,4.39,0,0,1,506,576.87Z"
    style="fill:#6d4c41" />
  <line x1="397.83" y1="377.92" x2="397.83" y2="572.48" style="fill:#f5f5f5" />
  <path d="M397.83,576.87a4.39,4.39,0,0,1-4.39-4.39V377.92a4.39,4.39,0,1,1,8.78,0V572.48A4.4,4.4,0,0,1,397.83,576.87Z"
    style="fill:#6d4c41" />
  <g style="opacity:0.5">
    <path
      d="M346.83,324H342v-2a3.66,3.66,0,0,0-7.32,0v2h-4.88a3.66,3.66,0,1,0,0,7.32h4.88v24.81a3.66,3.66,0,1,0,7.32,0V331.36h4.88a3.66,3.66,0,1,0,0-7.32Z"
      style="fill:#fff" />
    <path
      d="M319.62,348.24h-4.88V322a3.66,3.66,0,0,0-7.32,0v26.24h-4.88a3.66,3.66,0,1,0,0,7.31h4.88v.62a3.66,3.66,0,0,0,7.32,0v-.62h4.88a3.66,3.66,0,1,0,0-7.31Z"
      style="fill:#fff" />
  </g>
  <line x1="335.36" y1="320.54" x2="335.36" y2="354.7" style="fill:#f5f5f5" />
  <path d="M335.36,358.36a3.66,3.66,0,0,1-3.66-3.66V320.54a3.66,3.66,0,1,1,7.32,0V354.7A3.66,3.66,0,0,1,335.36,358.36Z"
    style="fill:#6d4c41" />
  <line x1="308.15" y1="320.54" x2="308.15" y2="354.7" style="fill:#f5f5f5" />
  <path d="M308.15,358.36a3.66,3.66,0,0,1-3.66-3.66V320.54a3.66,3.66,0,0,1,7.32,0V354.7A3.66,3.66,0,0,1,308.15,358.36Z"
    style="fill:#6d4c41" />
  <line x1="343.9" y1="326.23" x2="326.82" y2="326.23" style="fill:#f5f5f5" />
  <path d="M343.9,329.89H326.82a3.66,3.66,0,1,1,0-7.31H343.9a3.66,3.66,0,1,1,0,7.31Z" style="fill:#6d4c41" />
  <line x1="316.69" y1="350.43" x2="299.61" y2="350.43" style="fill:#f5f5f5" />
  <path d="M316.69,354.09H299.61a3.66,3.66,0,0,1,0-7.32h17.08a3.66,3.66,0,1,1,0,7.32Z" style="fill:#6d4c41" />
  <rect x="397.11" y="432.66" width="109.6" height="70.28" transform="translate(903.83 935.59) rotate(-180)"
    style="fill:#4dd0e1" />
  <path
    d="M506.72,506.59H397.11a3.65,3.65,0,0,1-3.66-3.65V432.66a3.66,3.66,0,0,1,3.66-3.66H506.72a3.65,3.65,0,0,1,3.65,3.66v70.28A3.64,3.64,0,0,1,506.72,506.59Zm-106-7.31H503.06v-63H400.77Z"
    style="fill:#6d4c41" />
  <g style="opacity:0.2">
    <path d="M496.12,434.34s4.39,65.87-98.73,58.49l-.07,9.57H507.1V434.54Z" style="fill:#6d4c41" />
  </g>
  <g style="opacity:0.5">
    <path d="M408.09,448.08a7.72,7.72,0,0,1,7.37-7.71l87.6-4.06H400.77v63h7.32Z" style="fill:#fff" />
  </g>
  <g style="opacity:0.2">
    <path d="M432.5,454.92a17.27,17.27,0,1,0,17.26,17.27A17.28,17.28,0,0,0,432.5,454.92Z" style="fill:#6d4c41" />
    <circle cx="480.11" cy="472.19" r="17.26" style="fill:#6d4c41" />
  </g>
  <circle cx="428.11" cy="467.8" r="13.6" style="fill:#ffca28" />
  <path
    d="M428.11,485.06a17.27,17.27,0,1,1,17.26-17.26A17.28,17.28,0,0,1,428.11,485.06Zm0-27.21a9.95,9.95,0,1,0,9.94,9.95A10,10,0,0,0,428.11,457.85Z"
    style="fill:#6d4c41" />
  <g style="opacity:0.2">
    <path d="M435.61,456.45a13.6,13.6,0,0,1-20.86,13.91,13.6,13.6,0,1,0,20.86-13.91Z" style="fill:#6d4c41" />
  </g>
  <g style="opacity:0.5">
    <path
      d="M421.09,470.72a10,10,0,0,1,10-9.94,9.82,9.82,0,0,1,5.4,1.61,9.94,9.94,0,1,0-13.74,13.74A9.91,9.91,0,0,1,421.09,470.72Z"
      style="fill:#fff" />
  </g>
  <circle cx="475.72" cy="467.8" r="13.6" style="fill:#ffca28" />
  <path
    d="M475.72,485.06A17.27,17.27,0,1,1,493,467.8,17.28,17.28,0,0,1,475.72,485.06Zm0-27.21a9.95,9.95,0,1,0,9.95,9.95A10,10,0,0,0,475.72,457.85Z"
    style="fill:#6d4c41" />
  <g style="opacity:0.2">
    <path d="M483.22,456.45a13.59,13.59,0,0,1-20.85,13.91,13.6,13.6,0,1,0,20.85-13.91Z" style="fill:#6d4c41" />
  </g>
  <g style="opacity:0.5">
    <path
      d="M468.7,470.72a10,10,0,0,1,9.95-9.94,9.86,9.86,0,0,1,5.41,1.61,9.94,9.94,0,1,0-13.75,13.74A9.91,9.91,0,0,1,468.7,470.72Z"
      style="fill:#fff" />
  </g>
  <path
    d="M326.12,214.57h339.3a0,0,0,0,1,0,0v6.59a32,32,0,0,1-32,32H364.72a38.6,38.6,0,0,1-38.6-38.6v0A0,0,0,0,1,326.12,214.57Z"
    transform="translate(991.54 467.73) rotate(-180)" style="fill:#4dd0e1" />
  <path
    d="M665.42,258.29H326.12a5.13,5.13,0,0,1-5.12-5.13V224.55a15.13,15.13,0,0,1,15.11-15.11H653.38a17.19,17.19,0,0,1,17.17,17.17v26.55A5.13,5.13,0,0,1,665.42,258.29ZM331.25,248h329V226.61a6.92,6.92,0,0,0-6.92-6.92H336.11a4.87,4.87,0,0,0-4.86,4.86Z"
    style="fill:#6d4c41" />
  <g style="opacity:0.5">
    <path
      d="M337.1,231.87A4.87,4.87,0,0,1,342,227H659.24a7.46,7.46,0,0,1,1.06.1v-.5a6.92,6.92,0,0,0-6.92-6.92H336.11a4.87,4.87,0,0,0-4.86,4.86V248h5.85Z"
      style="fill:#fff" />
  </g>
  <path d="M507.62,556.52H398.25a2.2,2.2,0,1,1,0-4.39H507.62a2.2,2.2,0,1,1,0,4.39Z" style="fill:#6d4c41" />
  <path d="M507.62,539.6H398.25a2.2,2.2,0,1,1,0-4.4H507.62a2.2,2.2,0,1,1,0,4.4Z" style="fill:#6d4c41" />
  <path d="M507.62,522.67H398.25a2.2,2.2,0,1,1,0-4.39H507.62a2.2,2.2,0,1,1,0,4.39Z" style="fill:#6d4c41" />
  <g style="opacity:0.2">
    <path d="M622,216.25s-36.59,26.35-292.74,24.88l-.73,12.44H663.72V224.3l-8.6-8.65Z" style="fill:#6d4c41" />
  </g>
  <g style="opacity:0.2">
    <polygon points="212.17 374.33 212.17 391.27 692.26 391.27 686.4 375.79 212.17 374.33" style="fill:#6d4c41" />
  </g>
  <g style="opacity:0.2">
    <path d="M537.11,317.24s1.46,43.92-175.65,35.13l5.13,6.59H536.38l4.39-4.39-.25-37Z" style="fill:#6d4c41" />
  </g>
  <g style="opacity:0.2">
    <path d="M496.12,380.18s4.39,48.31-96.6,45.38l-2.93,7.32H504.91v-52.7Z" style="fill:#6d4c41" />
  </g>
  <g style="opacity:0.2">
    <polygon points="397.79 520.92 397.79 528.02 503.44 528.02 503.44 519.9 397.79 520.92" style="fill:#6d4c41" />
  </g>
  <g style="opacity:0.2">
    <polygon points="397.79 538.49 397.79 545.58 503.44 545.58 503.44 537.47 397.79 538.49" style="fill:#6d4c41" />
  </g>
  <g style="opacity:0.2">
    <polygon points="397.79 556.05 397.79 563.15 503.44 563.15 503.44 555.03 397.79 556.05" style="fill:#6d4c41" />
  </g>
  <g style="opacity:0.2">
    <polygon points="397.79 506.28 397.79 513.38 503.44 513.38 503.44 505.26 397.79 506.28" style="fill:#6d4c41" />
  </g>
  <path d="M879.66,605.88H120.34a4.06,4.06,0,0,1,0-8.12H879.66a4.06,4.06,0,0,1,0,8.12Z" style="fill:#6d4c41" />
  <g style="opacity:0.2">
    <path d="M555.38,573.94s-68.79,24.91-408,23.73L153,602.4l696-1.77-6.44-20L825.3,574Z" style="fill:#6d4c41" />
  </g>
  <circle cx="168.83" cy="485.32" r="6.57" style="fill:#6d4c41" />
  <circle cx="843.73" cy="521.26" r="7.57" style="fill:#6d4c41" />
  <circle cx="869.35" cy="267.16" r="6.32" style="fill:#6d4c41" />
  <path
    d="M840.64,218.05c1.46-1.46.53-4.93-2-8.86a3.52,3.52,0,0,1,0-3.84c2.58-3.93,3.51-7.4,2-8.86s-4.93-.54-8.86,2a3.48,3.48,0,0,1-3.84,0c-3.93-2.58-7.4-3.5-8.86-2s-.54,4.93,2,8.86a3.48,3.48,0,0,1,0,3.84c-2.58,3.93-3.5,7.4-2,8.86s4.93.54,8.86-2a3.48,3.48,0,0,1,3.84,0C835.71,218.59,839.18,219.51,840.64,218.05Z"
    style="fill:#6d4c41" />
  <path
    d="M140.2,442.56c1.68,0,3.14-2.53,3.92-6.27a2.82,2.82,0,0,1,2.21-2.21c3.74-.78,6.27-2.24,6.27-3.92s-2.53-3.15-6.27-3.92a2.84,2.84,0,0,1-2.21-2.21c-.78-3.75-2.24-6.27-3.92-6.27s-3.15,2.52-3.92,6.27a2.85,2.85,0,0,1-2.21,2.21c-3.75.77-6.27,2.24-6.27,3.92s2.52,3.14,6.27,3.92a2.84,2.84,0,0,1,2.21,2.21C137.05,440,138.52,442.56,140.2,442.56Z"
    style="fill:#6d4c41" />
  <circle cx="247.19" cy="99.43" r="10.02" style="fill:#6d4c41" />
  <circle cx="196.82" cy="150.17" r="6.55" style="fill:#6d4c41" />
  <path
    d="M435.72,684.54l.12,11.88H423.72q-.48,0-1.2.06l-1,.06h-2q-.36,0-1.08.06t-1.08.06H415.2a1.07,1.07,0,0,0-.48.12h-.36a5.56,5.56,0,0,1-.12,1.08v.24q0,.48.06,1.44t.06,1.44v9a26.37,26.37,0,0,1,.12,3.12v4.08a18.52,18.52,0,0,1,.12,2v3.72h.84a8.08,8.08,0,0,1,1.32-.12,13.21,13.21,0,0,1,2-.12h.72a8.08,8.08,0,0,1,1.32-.12q.36,0,1.08-.06t1.08-.06h2.16a14.27,14.27,0,0,1,2.16-.12h2l1-.06q.72-.06,1.08-.06h2.4l.36,11.76h-2.4l-1,.06q-.72.06-1.08.06h-2q-.48,0-1.14.06t-.9.06h-2.16a4.46,4.46,0,0,0-1.08.12h-1a10.87,10.87,0,0,0-1.92.12,14.56,14.56,0,0,0-1.8.12,10.87,10.87,0,0,0-1.92.12,3.53,3.53,0,0,0-.84.12v2.76q0,.6.06,1.56t.06,1.32V770l.12.48v1l-11.76.24V770.1a7.45,7.45,0,0,0-.12-1.44V762.9q.12-1.2.12-2.52V743.7a8.23,8.23,0,0,0-.12-1.56v-4.32a26.78,26.78,0,0,0-.12-3v-3a24.88,24.88,0,0,0-.12-3V725.7a28.31,28.31,0,0,0-.12-3.12v-3.12q0-.6-.06-1.68t-.06-1.44v-3a18.52,18.52,0,0,0-.12-2v-10l-.12-.36V689.34a3.77,3.77,0,0,0-.06-.6,3.68,3.68,0,0,1-.06-.48v-.6h1.68v-2.4h3a5.16,5.16,0,0,1,1-.12h2q1.2-.12,2.28-.12.36,0,1.14-.06t1.14-.06h2.16a14.27,14.27,0,0,1,2.16-.12h2.28q.36,0,1.08-.06l1-.06h8.28q.36,0,1-.06t.9-.06h2.16Z"
    style="fill:#6d4c41" />
  <path
    d="M443,685.74h11.64v5.4q0,1.68-.12,3.84v2.76a22.49,22.49,0,0,1,.12,2.64V725q0,.6.06,1.32t.06.84v2q0,.24.06.9t.06,1a7.05,7.05,0,0,1,.24,1.68,7.44,7.44,0,0,1,.24,1.8q.24,1,.36,1.56a13.92,13.92,0,0,0,.84,2.76,1,1,0,0,1,.36.72,1.4,1.4,0,0,1,.24.36l.12.12q.12,0,.12.24.24,0,.48.36l.36.24h.12l.36.12a2.66,2.66,0,0,1,.84.12h.12l.12-1.08a2,2,0,0,1,1,.12h1.32a2,2,0,0,1,.6.12h1.92a4.37,4.37,0,0,1,.72.06l.48.06a3.64,3.64,0,0,1,1.08-.12h1.2a5.56,5.56,0,0,1,1.08-.12,3.64,3.64,0,0,1,1.08-.12,5,5,0,0,1,.84-.24h.24l.24-.12a1.4,1.4,0,0,1,.36-.24l.36-.36.24-.12.12-.12.24-.36a6.58,6.58,0,0,0,.36-.84,3,3,0,0,0,.36-1.32,7.44,7.44,0,0,0,.48-1.44,10.54,10.54,0,0,0,.24-1.56,5.76,5.76,0,0,0,.36-1.68,15938637750424,15938637750424,0,0,1,.24-3.6,14.27,14.27,0,0,0,.12-2.16v-2a17.54,17.54,0,0,0,.12-2.16v-34.8h11.64V691l.12.36v5.16a20.34,20.34,0,0,1-.12,2.76v15.48q0,.12.06.9t.06,1.5v2.4q0,.48-.06,1.2t-.06,1a5.3,5.3,0,0,1,0,2.28v2.28a14,14,0,0,1-.12,2.28,19.9,19.9,0,0,1-.12,2.4q0,.36-.24,2.28a10,10,0,0,1-.36,2.28q-.36,1.56-.48,2.16a16.5,16.5,0,0,1-.6,2.16,5.57,5.57,0,0,0-.3,1q-.18.72-.3,1.08a15.7,15.7,0,0,1-1,2.16,13.65,13.65,0,0,1-1.2,2q-.24.24-.72.78a8.73,8.73,0,0,0-.72.9,18.29,18.29,0,0,1-1.44,1.32q-.24.12-1.68,1.08-1.2.6-2,1-.12,0-2,.6-.12,0-1.56.24a3.93,3.93,0,0,0-1,.24v1.08h-1l-.66.06a8.41,8.41,0,0,1-.9.06,2.27,2.27,0,0,0-.72.12h-.84a7.15,7.15,0,0,0-1.56.12H463.8a6.37,6.37,0,0,1-.72-.06,6.88,6.88,0,0,0-.84-.06H460.8q-1.44-.24-1.56-.24l-.54-.06a5.54,5.54,0,0,0-.78-.06,10.11,10.11,0,0,0-1.68-.24,19.93,19.93,0,0,0-2-.6l-1.92-1q-.72-.48-1.68-1.2a15.58,15.58,0,0,0-1.44-1.32q-.6-.72-1.56-1.68-.24-.48-.66-1.2a6.16,6.16,0,0,0-.54-.84,17.6,17.6,0,0,1-.84-2.16,17.65,17.65,0,0,0-.72-1.92,5.6,5.6,0,0,1-.3-1q-.18-.78-.3-1.14-.24-1.32-.36-2.16a15.19,15.19,0,0,0-.36-2.28q-.24-1.92-.24-2.4a15.09,15.09,0,0,0-.24-2.4V727.5q0-.36-.06-1.14t-.06-1.14v-37Q443,687.06,443,685.74Zm1.56,84.36h0Zm-.12-11.88a6.74,6.74,0,0,1,1.32.12,10.34,10.34,0,0,1,1.68.12h2.28a19,19,0,0,1,2.64.12h3q2.16,0,3.36.12h26.4v11.64H465.72q-.6,0-1.8-.06t-1.8-.06h-15a12.19,12.19,0,0,0-1.92-.12h-.6Z"
    style="fill:#6d4c41" />
  <path
    d="M528.12,686.22l12,.24v.36a2,2,0,0,1-.12.6v2q0,1.08-.12,2.4,0,1.8-.12,3V700a12.93,12.93,0,0,1-.06,1.38q-.06.54-.06.66a18.69,18.69,0,0,1-.12,2.28v1.8q0,1-.06,2.4t-.06,1.92v4.44q0,1.8-.12,4.56v6.12q-.12,1.44-.12,2.88v24.48a11.87,11.87,0,0,1-.12,1.68v8.52l.12,3.12v3.48H531l-2.76,1.32q-.12-.24-.3-.66t-.3-.66h-.12v-.24l-.6-1.2q-.6-1.44-1.68-3.6-.36-.84-1-2.16t-.72-1.56q-.6-1.56-1.68-3.72-.48-1.32-1.68-4a27.6,27.6,0,0,0-1.68-4.08,35.12,35.12,0,0,0-1.68-4.2,3.52,3.52,0,0,0-.3-.78,16.15,16.15,0,0,1-.6-1.56,14.25,14.25,0,0,0-.78-1.86,41.7,41.7,0,0,0-1.8-4.32,23.55,23.55,0,0,0-1.8-4.56,43.65,43.65,0,0,0-1.92-4.56,47.69,47.69,0,0,0-1.92-4.56q-.36-1-1-2.52t-.84-2a4.46,4.46,0,0,1-.12,1.08v10.08q0,1.08-.06,2.58t-.06,1.86v36.72H494v-16.8q.12-1.2.12-3.72v-12q0-1.2.06-2.64t.06-1.68v-9q.12-1.92.12-4.56v-4.56q.12-1.92.12-4.56,0-.24.06-1.68t.06-2.64v-4.08q0-.36.06-1.56t.06-2.16V687.06l11.88.36v1.32a11.87,11.87,0,0,1-.12,1.68,3.91,3.91,0,0,1,.72,1.44,8.06,8.06,0,0,1,.84,1.92,13,13,0,0,1,1,2.28,20.42,20.42,0,0,0,1.08,2.64,9,9,0,0,1,.6,1.56,10,10,0,0,1,.72,1.68,36.14,36.14,0,0,1,1.56,3.72,25.62,25.62,0,0,1,1.68,4q.84,1.8,1.8,4.32.72,1.56,1.8,4.44.24.48,1.92,4.68a18.62,18.62,0,0,1,1,2.4l.54,1.32a3.68,3.68,0,0,0,.42.84,46.36,46.36,0,0,1,1.8,4.44,32.35,32.35,0,0,1,1.8,4.44q.6,1.2,1.8,4.2v.24h.12v-8q0-1.44.06-2.94t.06-1.62v-9q.12-2.28.12-4.56v-4.56a41.57,41.57,0,0,0,.12-4.32q0-.24.06-.84t.06-1.2V698q0-.72.06-1.8t.06-1.56v-7a1.6,1.6,0,0,0-.12-.84Zm-21.48,1.2v0Zm33.48-1v0Z"
    style="fill:#6d4c41" />
  <path
    d="M558.84,684.66a2.67,2.67,0,0,1,.24,1.2v1.44a8.8,8.8,0,0,1,.12,1.8v2.4a23.87,23.87,0,0,1,.12,2.76v6q0,.48.06,1.56t.06,1.68v7.68l.24-.24.12-.36a11.43,11.43,0,0,0,1.08-1.68,3.15,3.15,0,0,1,.3-.48l.48-.66a5.41,5.41,0,0,0,.42-.66,7.66,7.66,0,0,0,1.08-1.8,17.61,17.61,0,0,1,1.08-1.8,4.19,4.19,0,0,0,.72-1.08,1.76,1.76,0,0,0,.48-1q1-1.44,1.2-1.92t.66-1.08q.42-.72.54-1a6.32,6.32,0,0,0,1.2-2,12.2,12.2,0,0,0,1.32-2.16q.12-.24,1.2-2,.24-.36,1.2-2.28l.54-1q.42-.78.66-1.26.36-.72,1.08-1.92l10.32,5.28q-.72,1.44-1,2t-.72,1.26a6.47,6.47,0,0,0-.6,1.14l-.6,1.14q-.48.9-.72,1.26a14.47,14.47,0,0,1-1.32,2.28l-.12.24-.42.84q-.3.6-.66,1.2-.72,1.2-1.32,2a21.35,21.35,0,0,1-1.2,2.16l-1.2,1.92a9.1,9.1,0,0,1-1.2,1.92q-1.08,1.92-1.2,2a7,7,0,0,1-1.2,1.8,17.61,17.61,0,0,0-1.08,1.8,12.31,12.31,0,0,1-1.08,1.68,4.66,4.66,0,0,1-1.08,1.68v.12a2,2,0,0,0-.24.3,3.92,3.92,0,0,0-.24.42l-.48.72a6.31,6.31,0,0,0-1,1.56,8.47,8.47,0,0,1-.6.84q.12,0,.12.24l.12.12a2.78,2.78,0,0,1,.6,1.2,14.09,14.09,0,0,1,.72,1.32,1.52,1.52,0,0,1,.36.72.69.69,0,0,1,.24.48,9.31,9.31,0,0,1,.48,1.2l.36.72a1,1,0,0,1,.36.6,3.91,3.91,0,0,1,.72,1.44,4.68,4.68,0,0,1,.48.84,1.29,1.29,0,0,1,.24.72,13.43,13.43,0,0,1,.84,1.56,16.18,16.18,0,0,1,.84,1.68,13.32,13.32,0,0,1,.84,1.8,1.4,1.4,0,0,1,.24.36q.12.24.3.66t.3.66a17.35,17.35,0,0,1,1,1.8,6.66,6.66,0,0,1,1,1.92q.72,1.56,1,2l1,1.92,1,1.92a10.38,10.38,0,0,1,1.08,2,18.36,18.36,0,0,1,1.08,1.92,4.8,4.8,0,0,1,.48.78,11.79,11.79,0,0,1,.6,1.26q.72,1.2,1.08,1.92l.42.84a9.18,9.18,0,0,0,.54,1,2.32,2.32,0,0,1,.3.42q.18.3.42.66l.48.72a.92.92,0,0,0,.24.42,3.15,3.15,0,0,1,.36.54,4,4,0,0,1,.6,1,4.25,4.25,0,0,1,.6.9q.36.66.6,1a18.36,18.36,0,0,0,1.08,1.92l-10.08,6a7.66,7.66,0,0,0-1.08-1.8q-.6-1.08-1.08-1.8-.24-.48-1.2-1.92-.72-1.2-1.32-2-1.08-1.8-1.2-2L572,759.9a9.93,9.93,0,0,0-1.08-2,12.41,12.41,0,0,0-1.2-2,15.29,15.29,0,0,0-1-2l-.48-1a4.93,4.93,0,0,0-.42-.72.73.73,0,0,1-.18-.36q-.72-1.44-1.08-2a6,6,0,0,0-.48-1.08,4.68,4.68,0,0,0-.48-.84,17.35,17.35,0,0,0-1-1.8,7.19,7.19,0,0,0-1-1.92q-.12-.36-.84-1.8a7.36,7.36,0,0,0-.84-1.68,2.63,2.63,0,0,0-.36-.72l-.48-1a7.27,7.27,0,0,0-.84-1.56,4,4,0,0,0-.72-1.56.11.11,0,0,0-.12-.12v10.8q0,.24.06,1.38t.06,2v15.36q0,.36.06,1.26t.06,1.38v2.28H548V749.94q0-2.28-.12-3.36v-22.2q0-1.08-.06-2.28t-.06-1.44v-13.8q0-1.92-.12-3.36v-6.12a17.27,17.27,0,0,0-.12-2.76V692q0-.48-.06-1.32t-.06-1a6.88,6.88,0,0,0-.06-.84q-.06-.48-.06-.6v-.48l-.12-.24Zm.6,41v.24l.24-.24Z"
    style="fill:#6d4c41" />
</svg>